<?xml version="1.0" encoding="UTF-8" standalone="no"?>
<svg
   xmlns:dc="http://purl.org/dc/elements/1.1/"
   xmlns:cc="http://creativecommons.org/ns#"
   xmlns:rdf="http://www.w3.org/1999/02/22-rdf-syntax-ns#"
   xmlns:svg="http://www.w3.org/2000/svg"
   xmlns="http://www.w3.org/2000/svg"
   xmlns:sodipodi="http://sodipodi.sourceforge.net/DTD/sodipodi-0.dtd"
   xmlns:inkscape="http://www.inkscape.org/namespaces/inkscape"
   width="1000"
   height="1000"
   viewBox="0 0 1000 1000"
   version="1.1"
   id="svg146"
   sodipodi:docname="Wikipedia-logo_WikiOx_2021.svg"
   inkscape:version="1.0.1 (3bc2e813f5, 2020-09-07)">
  <metadata
     id="metadata150">
    <rdf:RDF>
      <cc:Work
         rdf:about="">
        <dc:format>image/svg+xml</dc:format>
        <dc:type
           rdf:resource="http://purl.org/dc/dcmitype/StillImage" />
        <dc:title>Wikipedia-logo-v2-zh-SHS-sc</dc:title>
      </cc:Work>
    </rdf:RDF>
  </metadata>
  <sodipodi:namedview
     pagecolor="#ffffff"
     bordercolor="#666666"
     borderopacity="1"
     objecttolerance="10"
     gridtolerance="10"
     guidetolerance="10"
     inkscape:pageopacity="0"
     inkscape:pageshadow="2"
     inkscape:window-width="1920"
     inkscape:window-height="1001"
     id="namedview148"
     showgrid="false"
     inkscape:zoom="0.53669405"
     inkscape:cx="592.25833"
     inkscape:cy="579.49402"
     inkscape:window-x="-9"
     inkscape:window-y="-9"
     inkscape:window-maximized="1"
     inkscape:current-layer="svg146" />
  <defs
     id="defs4">
    <style
       id="style2">.cls-1{fill:#6d0018;}.cls-2{fill:#fab34c;}.cls-3{fill:#f89500;}.cls-4{fill:#fee678;}.cls-5{fill:#c00000;}.cls-6{fill:#ee0202;}.cls-7{fill:#00584e;}.cls-8{fill:#b00055;}.cls-9{fill:#fbca7f;}.cls-10{fill:#ff573a;}.cls-11{fill:#bd3bb9;}.cls-12{fill:#33061f;}.cls-13{fill:#bbfff8;}.cls-14{fill:#ff9d00;}</style>
  </defs>
  <title
     id="title6">Wikipedia-logo-v2-zh-SHS-sc</title>
  <g
     id="layer101"
     fill="#000000"
     stroke="none"
     transform="matrix(0.1,0,0,0.1,789.56475,-174.18688)" />
  <g
     id="g1511">
    <path
       id="path172"
       style="fill:#000000;stroke:none;stroke-width:0.126731"
       d="m 272.90453,0.01858372 c -2.32716,0.08985218 -3.56177,0.51187861 -3.79939,1.27226378 -0.38019,0.7603852 0.25346,1.5197818 1.26731,1.5197818 3.04154,0 26.7397,12.1666567 29.27432,15.0814667 2.66135,3.041541 4.05437,12.799323 2.78706,19.76952 -0.88711,4.689042 -5.57514,10.51965 -10.39091,13.054267 -1.39404,0.760385 -14.32059,4.307861 -28.51445,7.856325 -27.50059,6.970197 -55.88881,15.081466 -56.90266,16.348775 -0.38019,0.506923 -6.59,3.041541 -13.94039,5.702889 -15.20771,5.576157 -44.3558,19.010123 -46.25677,21.418008 -0.63365,0.88712 -5.45044,4.43459 -10.51967,7.85633 -11.15232,7.47712 -12.67309,9.25184 -20.27694,24.58626 -5.95635,11.78597 -5.95534,12.03944 -5.95534,24.71252 0,9.75828 0.63264,14.95326 2.78707,21.79672 6.33654,19.89675 30.16397,48.03199 45.11821,52.97449 3.92866,1.39404 7.22265,2.91382 7.22265,3.42074 0,1.52077 21.41802,7.98405 37.25938,11.40578 l 13.30674,2.78956 -6.84398,7.47515 c -3.80192,4.18212 -6.97019,8.23899 -6.97019,9.1261 0,1.01385 -1.01284,2.02819 -2.15341,2.40838 -1.26731,0.38019 -8.74595,3.04105 -16.73,5.82913 -8.11077,2.78808 -23.95213,6.84248 -36.11829,9.12363 -11.9127,2.28116 -21.92393,4.56281 -22.30413,4.943 -0.38019,0.50692 -2.91481,1.2683 -5.70289,1.64849 -30.03521,4.43558 -48.791377,7.7286 -48.791377,8.74245 0,0.63366 0.761399,1.90245 1.648515,2.78956 0.760385,0.88712 4.180597,4.43459 7.348869,7.85633 10.138469,10.89885 29.275333,24.83974 41.694963,30.28917 3.16827,1.39404 6.08257,3.04203 6.46276,3.67569 0.50693,0.63365 5.45044,2.28115 11.15333,3.80192 l 10.13847,2.66086 -2.7896,6.33654 c -4.30885,9.37808 -15.33443,39.0331 -19.00963,51.326 -13.05328,43.08849 -19.26258,82.88198 -19.13585,124.19624 0,63.87235 10.01174,110.63703 36.75195,173.36881 3.04154,7.09692 5.57666,13.55871 5.57666,14.3191 0,0.63365 2.28065,5.3222 5.19546,10.2647 l 5.06924,9.12611 -1.90097,10.89836 c -6.08308,32.56983 1.52179,80.4741 17.48988,111.52316 8.87116,17.10866 13.81265,26.10705 15.46015,27.75455 1.39404,1.52077 1.26832,2.4069 -0.8861,5.32171 -3.6752,5.19596 -8.74494,17.23589 -8.74494,20.78435 0,3.42173 2.15341,9.12413 4.68803,12.16567 1.39404,1.6475 1.26832,2.40838 -0.8861,4.30934 -2.66135,2.40789 -3.42123,6.46229 -1.39354,7.22267 0.63366,0.25347 -1.77575,4.81775 -5.32421,10.26718 l -6.33655,10.00976 2.15595,6.84396 c 1.6475,5.06924 3.92764,8.61819 8.48995,13.18051 3.54847,3.54846 7.22417,6.33654 8.11128,6.33654 0.88712,0 2.53361,0.76137 3.42072,1.64849 0.88712,0.88711 4.30936,2.66085 7.47763,3.92816 5.70289,2.15443 6.08308,2.15492 9.50482,-0.12622 2.02769,-1.26731 4.69005,-3.42322 6.08409,-4.69053 2.40789,-2.40788 2.40789,-2.4064 5.70289,1.52226 4.68904,5.44942 11.40426,9.12363 16.85368,9.12363 6.71674,0 20.65916,-5.44893 24.84128,-9.63105 2.02769,-2.0277 4.94149,-5.70339 6.58899,-8.11127 1.6475,-2.40789 3.54948,-4.81528 4.18313,-5.19547 0.76039,-0.50693 1.01385,-5.19745 0.63366,-10.39342 -0.50693,-8.11078 -1.26833,-10.51768 -4.81679,-16.09384 -2.40789,-3.67519 -4.30885,-7.98355 -4.43558,-9.63105 0,-1.6475 -1.64801,-4.5633 -3.6757,-6.71772 l -3.54695,-3.67569 3.16828,-4.94053 c 3.04154,-4.81577 3.16725,-5.32467 1.51975,-12.80179 -1.77423,-8.87116 -2.78757,-10.39095 -10.26469,-15.46018 l -5.19546,-3.67569 1.77221,-7.85632 c 2.02769,-8.87116 5.32269,-15.9676 8.87116,-19.13587 2.28115,-2.15442 2.91582,-1.77522 15.58891,6.58902 7.35039,4.81577 14.19385,9.5058 15.2077,10.51965 2.40789,2.28115 18.62944,11.53152 34.21739,19.2621 6.59001,3.42173 12.2929,6.46327 12.67309,6.9702 0.38019,0.50692 6.59001,3.80291 13.9404,7.35137 12.29289,5.95635 36.24502,13.43199 57.66254,18.12103 4.18212,0.88712 7.85731,2.0277 8.2375,2.53462 0.76039,1.01385 21.79771,4.56281 37.38561,6.21031 21.41751,2.15442 47.90426,2.78758 63.99908,1.39354 22.1779,-2.02769 51.20016,-6.33555 51.70721,-7.85632 0.25346,-0.63366 1.52026,-1.14107 2.66084,-1.14107 3.80192,0 28.89413,-5.95635 43.21471,-10.13847 14.06713,-4.30885 42.07465,-14.82751 43.0885,-16.47501 0.88711,-1.26731 21.16405,-11.40578 22.81155,-11.40578 1.6475,0 19.26208,-11.78696 22.43035,-14.95523 3.16827,-3.295 25.47493,-19.2621 26.74224,-19.2621 3.04154,0 9.63142,12.29388 12.03943,22.55908 l 1.7722,7.85632 -6.08156,4.43558 c -8.2375,5.82962 -9.8845,8.74344 -10.26469,17.9948 -0.25346,6.71673 0.12673,8.36572 2.66084,11.02706 l 2.91329,3.16828 -4.05437,4.94299 c -2.15443,2.78808 -3.80294,5.82765 -3.54948,6.84149 0.25346,0.88712 -1.52026,4.69053 -3.92815,8.49245 -3.80193,5.82962 -4.43609,7.98306 -4.94301,16.72749 -0.38019,5.44942 -0.12673,10.01223 0.50743,10.01223 0.63365,0 3.16878,3.04203 5.57666,6.84396 4.68905,7.47712 7.85833,9.75778 18.12353,13.43298 9.37808,3.29503 15.45964,3.16823 21.92292,-0.63366 2.91481,-1.77423 6.46277,-4.68854 7.73007,-6.46278 2.40789,-3.295 2.53513,-3.29648 4.94301,-0.8886 1.26731,1.26731 4.05691,3.42322 5.95788,4.69053 3.54846,2.15442 3.92713,2.15393 11.15079,-0.50742 4.05526,-1.6475 7.47763,-3.29451 7.47763,-3.92816 0,-0.63365 0.76076,-1.14107 1.77474,-1.14107 1.01384,0 4.68891,-2.78808 8.2375,-6.33655 4.56231,-4.56231 6.84233,-8.11126 8.48996,-13.1805 l 2.15594,-6.84396 -6.33654,-10.00976 c -3.54859,-5.44943 -5.95787,-10.01372 -5.32422,-10.26718 1.90097,-0.76038 1.26782,-3.54846 -1.39353,-6.97019 -1.64763,-2.0277 -2.02769,-3.54748 -1.26731,-4.0544 1.90096,-1.14058 5.06924,-9.25086 5.06924,-12.79933 0,-3.42173 -5.06975,-15.46215 -8.74494,-20.65812 -2.15443,-2.9148 -2.28014,-3.80093 -0.8861,-5.3217 2.40788,-2.40789 17.61445,-31.17629 20.52938,-38.52668 7.60385,-19.38982 11.27905,-34.85098 13.30674,-56.39523 1.6475,-16.60174 0.88763,-42.07366 -1.39353,-47.14289 -1.39404,-2.91481 -1.01435,-4.31033 3.2945,-12.29438 2.66134,-4.9425 4.94199,-8.74344 5.19545,-8.48998 0.25334,0.25346 2.15544,6.71575 4.18314,14.19287 4.9425,18.75617 12.16616,35.99206 19.64328,47.39784 3.54846,5.19596 6.59051,10.13846 6.84397,10.77212 0.25334,0.76038 1.77373,2.66135 3.2945,4.43558 2.40789,2.66135 2.91582,5.06824 3.54948,15.46018 0.63365,10.77212 1.13905,13.30723 4.81425,20.1507 2.40788,4.30885 7.35178,10.89885 11.0271,14.57405 8.11078,7.98404 8.11027,9.63253 0.12673,18.75715 -5.57615,6.33654 -6.08447,10.51866 -0.88851,8.87116 1.64751,-0.50692 3.16916,-1.2683 3.54948,-1.64849 0.3802,-0.50692 3.16827,-1.90047 6.33655,-3.29451 8.36411,-3.67519 17.36111,-11.40676 20.52938,-17.48984 4.18212,-8.23751 4.81679,-29.27286 1.01486,-39.15786 -2.91493,-7.98405 -9.88399,-15.08097 -17.36124,-17.74232 -2.28115,-0.88712 -4.183,-1.90146 -4.183,-2.40838 0,-0.50693 -1.77386,-1.39454 -3.92828,-1.77473 -4.9425,-1.14058 -13.68782,-8.99838 -18.75706,-16.98243 -10.89885,-16.8552 -15.07945,-38.01827 -16.22015,-80.72657 l -0.76229,-30.54164 3.93056,-13.18051 c 5.06923,-17.10866 9.75777,-37.89302 12.16566,-53.73437 7.47724,-49.6785 5.06923,-122.29528 -5.70289,-169.81936 -3.92853,-17.23539 -16.98333,-53.86012 -28.13565,-79.33302 l -2.02718,-4.56182 9.50481,-2.1559 c 5.19584,-1.26731 10.13999,-2.91481 11.02698,-3.80193 0.76038,-0.76039 4.0545,-2.53412 7.22277,-3.92816 12.41963,-5.57616 31.55637,-19.39032 41.69483,-30.28917 3.16828,-3.42174 6.59064,-6.96921 7.47763,-7.85633 0.76039,-0.88711 1.51988,-2.1559 1.51988,-2.78956 0,-1.01385 -18.75629,-4.30687 -48.79138,-8.74245 -2.78808,-0.38019 -5.32269,-1.14157 -5.70288,-1.64849 -0.38032,-0.38019 -10.2652,-2.66184 -22.17791,-4.943 -24.83924,-4.68904 -56.39523,-14.57454 -56.39523,-17.61608 0,-0.50693 -2.78871,-4.43361 -6.21032,-8.74246 l -6.21032,-7.60385 13.30674,-2.78956 c 15.71463,-3.42173 37.13316,-9.88501 37.13316,-11.40578 0,-0.50692 3.29399,-2.0267 7.22265,-3.42074 14.95424,-4.9425 38.78154,-33.07774 45.11808,-52.97449 2.15443,-6.84346 2.78719,-12.03844 2.78719,-21.79672 0,-12.67308 8.9e-4,-12.92655 -5.95546,-24.71252 -7.60385,-15.33442 -9.12449,-17.10914 -20.27694,-24.58626 -5.06923,-3.42174 -9.75929,-6.96921 -10.51955,-7.85633 -1.90096,-2.407885 -31.04906,-15.841851 -46.25676,-21.418008 -7.35052,-2.661348 -13.5602,-5.195966 -13.94039,-5.702889 -1.01398,-1.267309 -29.4022,-9.378578 -56.90267,-16.348775 -14.19398,-3.548464 -27.12053,-7.09594 -28.51444,-7.856325 -4.81577,-2.534617 -9.5038,-8.365225 -10.39104,-13.054267 -1.26731,-6.970197 0.12546,-16.727979 2.78719,-19.76952 2.53462,-2.91481 26.23265,-15.0814667 29.27432,-15.0814667 1.01372,0 1.64737,-0.7593966 1.26731,-1.5197818 -0.63366,-2.02769377 -8.36335,-1.64898394 -24.96497,1.0123641 -16.8552,2.7880663 -30.92283,7.4771081 -35.99207,12.0394194 -5.19596,4.562311 -11.91219,16.982442 -11.532,21.418022 2.02757,24.332325 7.60385,39.158847 17.74232,47.776546 6.59001,5.576157 25.09258,16.601741 29.78175,17.742321 1.77423,0.38019 3.42174,1.14157 3.80193,1.64849 0.38006,0.38019 10.64539,4.68953 22.81155,9.37858 26.86682,10.51866 31.55687,13.05328 35.86572,19.64327 5.3227,7.98404 4.43356,11.78597 -4.56421,21.54424 -6.9702,7.60386 -16.3479,11.78548 -36.87817,16.60125 l -11.15092,2.66086 -4.69044,-3.67569 c -6.46327,-5.06924 -9.25199,-5.44894 -20.15071,-2.66086 -5.19597,1.26731 -10.77111,2.40838 -12.29188,2.40838 -2.78821,0 -27.24714,-10.89885 -28.51445,-12.67308 -1.1407,-1.77423 -29.52829,-11.15281 -46.89041,-15.71512 -19.00963,-4.94251 -42.45446,-9.63105 -48.28408,-9.63105 -2.02757,0 -3.67558,-0.50742 -3.67558,-1.14108 0,-1.6475 -31.68271,-4.43556 -51.32599,-4.43556 -18.75617,0 -51.326,2.66183 -51.326,4.30933 0,0.50692 -3.04066,1.2678 -6.58912,1.77472 -11.65924,1.52077 -31.55687,5.95487 -47.2715,10.51718 -16.47501,4.68904 -38.9065,12.80081 -39.92022,14.32158 -1.1407,1.6475 -27.75317,12.67308 -30.66798,12.67308 -1.64738,0 -5.45038,-0.88662 -8.61865,-2.0272 -9.50481,-3.295 -15.33342,-2.78808 -21.16304,1.90097 l -5.19799,4.0544 -11.1508,-2.66086 c -20.5304,-4.81577 -29.90797,-8.99739 -36.87817,-16.60125 -9.12462,-9.885 -9.88551,-13.68792 -4.30936,-21.92542 4.56231,-6.59 10.39143,-9.75728 36.87818,-19.89575 11.5325,-4.30885 21.16405,-8.36473 21.54424,-8.74492 0.3802,-0.50692 2.0277,-1.2683 3.80193,-1.64849 4.68904,-1.14058 23.19175,-12.166164 29.78181,-17.742321 7.85732,-6.716736 14.06612,-19.769026 16.09381,-33.836151 2.02757,-14.70078 1.90236,-15.968089 -2.27976,-24.712518 C 331.58364,12.568906 320.43069,6.738779 294.07074,2.3032116 283.69465,0.63986908 276.78389,-0.13116147 272.90516,0.01858372 Z"
       sodipodi:nodetypes="scscccccccccsccscccscccccsccccccccccsccccccsccccccsssccccssscccccccccccccccsccscccsccscsccccccccccsccccsccssscccsccsccccccsccccccccccccccsccccccccccscccscccscccsccscccccccccsccccccccccccccsccsssscccscccccccccccccs" />
    <g
       id="layer105"
       fill="#255d6b"
       stroke="none"
       transform="matrix(0.12673086,0,0,0.12673086,53.281978,-9.482771)">
      <path
         d="m 4188,7377 c -55,-18 -53,-23 16,-35 116,-22 195,-51 233,-87 43,-40 40,-72 -5,-60 -77,20 -212,45 -245,45 -47,0 -54,-15 -33,-78 l 17,-49 127,-33 c 70,-19 129,-36 132,-40 7,-8 149,-40 178,-40 32,0 112,-48 112,-68 0,-9 -9,-26 -21,-38 l -21,-22 24,-13 c 12,-6 31,-20 40,-29 19,-20 245,-96 255,-86 4,3 -6,19 -20,34 -15,16 -27,38 -27,51 0,21 3,22 43,16 23,-4 44,-10 47,-14 3,-4 34,-16 70,-26 36,-10 95,-31 133,-46 37,-16 67,-25 67,-22 0,2 -9,18 -21,34 -14,20 -32,31 -59,35 -45,7 -75,28 -147,104 -73,77 -69,114 9,74 l 31,-16 -33,46 c -18,25 -45,53 -59,63 -37,24 -206,110 -275,139 -32,14 -65,31 -72,39 -21,20 -353,126 -409,130 -27,2 -67,-1 -87,-8 z"
         id="path565" />
    </g>
    <g
       id="layer102"
       fill="#6d0018"
       stroke="none"
       transform="matrix(0.12673086,0,0,0.12673086,53.281978,-9.482771)">
      <path
         d="m 5427,7919 c -26,-10 -57,-28 -69,-39 -12,-11 -24,-20 -28,-20 -3,0 -20,-22 -38,-49 -50,-77 -40,-165 26,-248 l 17,-22 90,26 c 69,19 114,25 195,26 103,0 130,-5 291,-59 12,-4 29,15 63,69 l 46,75 -21,56 c -11,31 -23,56 -27,56 -4,0 -21,13 -39,30 -17,16 -51,37 -75,47 -24,9 -45,20 -48,23 -13,17 -41,18 -57,1 -10,-10 -33,-26 -51,-37 l -32,-18 -42,43 c -65,67 -113,76 -201,40 z"
         id="path506" />
      <path
         d="m 1415,7920 c -11,-5 -38,-27 -60,-50 -22,-22 -43,-40 -47,-40 -12,0 -92,51 -100,64 -5,7 -8,7 -8,1 0,-6 -25,-19 -56,-30 -31,-10 -73,-34 -93,-52 -20,-18 -39,-33 -43,-33 -8,0 -39,-79 -40,-105 -2,-32 82,-158 101,-151 160,54 188,59 291,59 81,-1 126,-7 195,-26 l 90,-26 17,22 c 35,43 58,104 58,151 0,56 -44,133 -94,161 -17,10 -33,21 -36,25 -3,3 -24,14 -48,23 -46,18 -95,21 -127,7 z"
         id="path508" />
      <path
         d="m 6700,6978 c 0,-7 7,-22 15,-32 32,-43 9,-105 -55,-148 -55,-37 -101,-139 -107,-238 l -6,-79 42,-42 c 22,-23 41,-37 41,-31 0,6 24,17 53,26 89,26 145,68 174,132 23,51 25,65 21,157 -6,143 -36,194 -145,251 -25,12 -33,13 -33,4 z"
         id="path510" />
      <path
         d="m 2989,4432 c -68,-69 -110,-122 -143,-181 l -19,-34 24,7 c 30,8 353,46 396,46 17,0 33,5 35,12 3,9 59,12 208,12 149,0 205,-3 208,-12 2,-7 18,-12 35,-12 43,0 366,-38 396,-46 l 24,-7 -19,34 c -33,60 -100,142 -158,197 l -57,52 -29,-34 c -36,-41 -81,-63 -154,-77 -50,-9 -65,-7 -152,20 l -97,30 -93,-30 c -84,-27 -98,-29 -149,-20 -74,14 -118,36 -155,77 -16,19 -31,34 -32,33 -2,0 -33,-30 -69,-67 z"
         id="path512" />
      <path
         d="m 2604,4025 c -91,-16 -109,-27 -145,-83 -25,-39 -29,-56 -29,-114 0,-73 11,-110 52,-170 l 26,-38 7,83 c 11,137 43,184 155,224 67,25 93,62 64,94 -20,22 -32,22 -130,4 z"
         id="path514" />
      <path
         d="m 4246,4021 c -29,-32 -3,-69 64,-94 112,-40 144,-87 155,-224 l 7,-83 26,38 c 41,60 52,97 52,170 0,58 -4,75 -29,114 -36,57 -53,66 -150,84 -100,18 -105,17 -125,-5 z"
         id="path516" />
      <path
         d="m 2535,2819 c -28,-14 -81,-95 -94,-144 -28,-103 -3,-213 64,-280 59,-60 89,-61 149,-2 72,70 96,193 58,303 -37,107 -108,156 -177,123 z m 84,-155 c 13,-16 21,-41 21,-64 0,-40 -31,-90 -56,-90 -27,0 -63,52 -64,91 0,42 32,89 60,89 10,0 28,-12 39,-26 z"
         id="path518" />
      <path
         d="m 4365,2819 c -28,-14 -81,-95 -94,-144 -28,-103 -3,-213 64,-280 59,-60 89,-61 149,-2 72,70 96,193 58,303 -37,107 -108,156 -177,123 z m 84,-155 c 13,-16 21,-41 21,-64 0,-40 -31,-90 -56,-90 -27,0 -63,52 -64,91 0,42 32,89 60,89 10,0 28,-12 39,-26 z"
         id="path520" />
      <path
         d="m 1435,2064 c -251,-48 -465,-99 -474,-112 -3,-4 -35,-18 -71,-31 -103,-37 -156,-70 -217,-136 -110,-118 -166,-210 -194,-318 -33,-123 -19,-223 46,-344 52,-96 58,-103 152,-165 49,-32 94,-63 101,-69 42,-35 249,-124 432,-184 47,-15 87,-31 90,-35 7,-9 161,-53 353,-100 232,-56 272,-72 304,-122 22,-33 27,-54 30,-121 5,-102 -9,-129 -93,-174 -69,-38 -61,-39 65,-13 130,27 188,57 230,122 40,62 46,99 32,203 -12,87 -61,203 -103,242 -42,40 -183,119 -264,148 -43,16 -81,31 -84,35 -3,4 -74,35 -159,69 -168,66 -209,92 -246,152 -33,52 -32,92 6,154 51,84 167,146 347,185 80,17 90,22 125,62 52,60 61,94 54,209 -5,97 -14,125 -69,223 -19,35 -146,167 -158,165 -3,0 -108,-21 -235,-45 z"
         id="path522" />
      <path
         d="m 5249,2046 c -107,-104 -149,-191 -156,-325 -7,-115 2,-149 54,-209 35,-40 45,-45 125,-62 180,-39 296,-101 347,-185 38,-62 39,-102 6,-154 -37,-60 -78,-86 -246,-152 -85,-34 -156,-65 -159,-69 -3,-4 -41,-19 -84,-35 -81,-29 -222,-108 -264,-148 -42,-39 -91,-155 -103,-242 -14,-104 -8,-141 32,-203 42,-65 100,-95 230,-122 126,-26 134,-25 65,13 -84,45 -98,72 -93,174 3,67 8,88 30,121 32,50 72,66 304,122 192,47 346,91 353,100 3,4 43,20 90,35 183,60 390,149 432,184 7,6 52,37 101,69 94,62 100,69 152,165 118,219 72,425 -148,662 -61,66 -114,99 -217,136 -36,13 -68,27 -71,31 -9,14 -218,63 -454,107 -121,23 -229,43 -241,46 -15,3 -38,-13 -85,-59 z"
         id="path524" />
    </g>
    <g
       id="layer103"
       fill="#910000"
       stroke="none"
       transform="matrix(0.12673086,0,0,0.12673086,53.281978,-9.482771)">
      <path
         d="m 5410,6615 c 18,-48 61,-105 94,-127 22,-14 37,-34 40,-52 7,-33 39,-78 109,-153 48,-51 57,-83 24,-83 -8,0 -61,22 -118,49 -127,59 -142,63 -169,44 -19,-14 -21,-21 -15,-66 17,-123 108,-194 272,-214 49,-5 56,-10 92,-57 22,-29 51,-76 65,-106 34,-76 66,-241 66,-344 0,-63 4,-87 14,-93 29,-16 249,-229 277,-268 16,-22 42,-55 59,-74 l 30,-35 -7,81 c -4,54 -2,82 5,87 14,8 81,-25 103,-50 33,-38 59,-131 59,-212 0,-109 44,-255 96,-317 l 25,-30 -6,75 c -27,332 -123,686 -287,1055 -57,129 -158,313 -214,392 -24,34 -44,65 -44,69 0,12 -137,169 -250,286 -84,87 -109,108 -110,92 0,-15 16,-32 50,-55 44,-30 67,-69 41,-69 -15,0 -243,150 -269,176 -30,31 -44,31 -32,-1 z"
         id="path527" />
    </g>
    <g
       id="layer104"
       fill="#c00000"
       stroke="none"
       transform="matrix(0.12673086,0,0,0.12673086,53.281978,-9.482771)">
      <path
         d="m 4154,7043 c -17,-93 -74,-153 -154,-161 -55,-5 -120,12 -264,70 -88,35 -108,39 -151,34 -94,-12 -112,-22 -132,-74 -10,-26 -17,-54 -15,-62 13,-70 61,-90 307,-130 162,-26 196,-35 228,-61 37,-28 60,-81 52,-118 -8,-38 -22,-49 -98,-76 -65,-24 -60,-19 -166,-166 l -41,-57 77,-11 c 42,-6 133,-16 202,-22 69,-6 128,-14 131,-18 3,-4 46,-13 95,-19 94,-12 312,-78 380,-115 38,-21 85,-77 85,-102 0,-7 -24,-24 -53,-39 -67,-33 -93,-83 -71,-141 14,-37 223,-155 337,-191 31,-10 57,-21 57,-25 0,-11 117,-30 144,-23 14,3 32,17 41,31 19,29 14,61 -21,142 -44,99 -28,116 105,109 80,-5 142,-22 173,-47 32,-26 271,-181 278,-181 5,0 15,-8 22,-19 14,-20 123,-111 132,-111 13,0 4,141 -14,230 -31,153 -105,280 -161,280 -11,0 -19,5 -19,10 0,6 -13,10 -28,10 -35,0 -132,31 -166,53 -41,27 -86,102 -97,163 -13,70 -7,97 27,119 23,15 32,16 68,5 23,-7 67,-26 99,-42 110,-55 115,-54 58,8 -29,31 -63,79 -77,107 -14,27 -39,61 -55,74 -31,26 -95,128 -105,167 -4,18 -29,34 -102,69 -95,45 -239,93 -249,84 -2,-3 0,-14 6,-25 13,-24 15,-72 3,-72 -19,0 -240,74 -282,94 -50,24 -100,64 -100,80 0,5 10,20 22,33 15,16 18,27 12,33 -6,6 -89,29 -185,52 -96,22 -176,43 -179,47 -5,7 -121,41 -139,41 -6,0 -13,-17 -17,-37 z"
         id="path530" />
      <path
         d="m 3354,4606 c -126,-27 -173,-41 -227,-68 -36,-18 -37,-19 -21,-43 24,-36 74,-64 139,-76 52,-9 64,-8 149,21 l 93,31 97,-31 c 88,-28 101,-30 152,-21 64,12 114,40 138,77 l 17,25 -55,25 c -58,26 -232,69 -319,78 -35,4 -88,-2 -163,-18 z"
         id="path532" />
      <path
         d="m 2554,2822 c -23,-15 -94,-104 -94,-117 0,-19 78,-41 93,-26 18,18 44,12 64,-13 17,-22 91,-52 101,-41 10,9 -32,106 -58,137 -17,18 -30,36 -30,39 0,4 -8,9 -17,12 -10,2 -25,7 -33,11 -8,3 -20,2 -26,-2 z"
         id="path534" />
      <path
         d="m 4384,2822 c -23,-15 -94,-104 -94,-117 0,-19 78,-41 93,-26 18,18 44,12 64,-13 17,-22 91,-52 101,-41 10,9 -32,106 -58,137 -17,18 -30,36 -30,39 0,4 -8,9 -17,12 -10,2 -25,7 -33,11 -8,3 -20,2 -26,-2 z"
         id="path536" />
    </g>
    <g
       id="layer106"
       fill="#ee0202"
       stroke="none"
       transform="matrix(0.12673086,0,0,0.12673086,53.281978,-9.482771)">
      <path
         d="m 3255,7359 c -11,-7 -22,-16 -25,-20 -3,-4 -116,-12 -252,-17 -228,-10 -249,-12 -269,-31 -13,-11 -31,-23 -41,-27 -10,-3 -18,-9 -18,-13 0,-5 -66,-50 -147,-101 -82,-52 -161,-106 -177,-122 -32,-30 -60,-35 -101,-16 -57,26 -247,-68 -328,-162 -20,-24 -35,-45 -32,-48 8,-8 51,8 75,28 27,24 60,26 60,4 0,-8 -35,-57 -77,-109 -108,-131 -225,-283 -241,-312 l -13,-24 48,7 c 26,4 51,11 54,16 4,6 126,14 285,18 402,12 438,24 385,127 -33,64 -13,106 74,152 35,19 56,21 195,21 180,-1 228,-9 292,-53 70,-47 65,-78 -25,-140 -54,-37 -55,-39 -45,-68 6,-17 21,-35 34,-41 13,-6 24,-15 24,-19 0,-9 87,-38 235,-78 93,-25 402,-81 448,-81 12,0 111,121 127,156 17,35 54,63 118,88 87,34 97,53 58,114 -30,48 -37,51 -256,87 -185,30 -241,47 -279,85 -41,42 -45,79 -16,146 28,64 53,78 155,89 67,7 122,-8 245,-64 99,-46 168,-52 226,-19 41,23 65,61 75,124 l 6,40 -109,33 c -59,18 -139,43 -178,56 -87,29 -221,55 -286,55 -27,0 -49,4 -49,8 0,5 -18,12 -41,18 -22,5 -41,14 -41,19 0,6 26,20 58,31 l 59,22 -40,11 c -62,18 -226,24 -250,10 z"
         id="path568" />
      <path
         d="m 2524,6681 c -17,-10 -40,-31 -52,-46 l -21,-27 19,-39 c 11,-21 20,-54 20,-73 0,-30 -5,-36 -43,-55 -24,-12 -53,-21 -64,-21 -12,0 -23,-5 -25,-10 -2,-7 -108,-14 -288,-20 -190,-6 -308,-14 -355,-24 -38,-9 -71,-16 -72,-16 -2,0 -19,-32 -39,-72 -43,-85 -74,-179 -74,-223 0,-34 25,-65 53,-65 9,0 17,-4 17,-10 0,-5 20,-10 45,-10 25,0 45,4 45,8 0,16 137,43 179,36 56,-9 65,-23 59,-97 -10,-117 -71,-228 -144,-263 -29,-14 -37,-13 -90,5 -32,12 -75,21 -96,21 -45,0 -137,-35 -154,-58 -7,-9 -23,-53 -36,-97 -28,-96 -31,-255 -6,-320 l 15,-40 99,-14 c 54,-8 101,-18 104,-22 3,-5 62,-13 130,-18 132,-11 248,-2 276,22 40,32 94,94 94,108 0,8 -16,31 -36,50 -34,32 -35,36 -29,83 8,63 30,104 58,111 101,23 150,23 255,4 128,-24 184,-48 235,-97 42,-41 47,-70 15,-98 -26,-24 -108,-133 -108,-145 0,-5 7,-9 15,-9 8,0 15,-4 15,-9 0,-36 558,-201 679,-201 16,0 31,-4 33,-10 2,-5 47,-12 101,-16 l 98,-7 -8,39 c -15,73 -6,273 15,354 30,112 54,147 126,181 73,35 122,37 179,8 52,-27 141,-88 185,-128 69,-62 135,-50 173,31 20,44 24,66 24,167 v 116 l -155,6 c -206,7 -234,19 -309,129 -56,82 -71,115 -81,177 -9,52 -7,60 31,145 23,49 39,91 37,93 -2,2 -87,17 -188,34 -184,30 -442,96 -511,132 -34,17 -79,84 -79,117 0,6 27,32 60,57 33,25 60,52 60,59 0,24 -41,55 -92,71 -37,11 -96,15 -207,15 -135,0 -160,-3 -187,-19 z"
         id="path570" />
      <path
         d="m 1510,6311 c -47,-15 -113,-40 -147,-56 -56,-25 -63,-31 -63,-57 0,-43 -33,-99 -87,-147 -26,-24 -61,-55 -78,-70 -49,-44 -94,-73 -105,-66 -15,10 -12,102 5,135 9,17 13,30 9,30 -18,0 -116,-64 -126,-83 -6,-12 -17,-26 -24,-32 -12,-10 -114,-189 -114,-201 0,-3 -25,-69 -56,-147 C 567,5221 508,5022 475,4776 l -7,-49 49,50 c 50,51 116,84 134,66 7,-7 6,-40 -1,-94 -11,-91 -5,-148 16,-156 27,-10 70,9 109,50 54,57 75,126 75,249 v 96 l 47,41 c 26,22 72,53 103,68 30,16 58,32 61,36 9,13 126,27 227,27 50,0 92,3 92,6 0,3 -7,28 -16,55 -31,92 -5,294 52,412 10,20 23,37 30,37 6,0 31,9 55,20 54,24 126,25 189,3 45,-16 50,-16 88,1 51,23 75,57 101,140 25,82 28,136 6,136 -8,0 -15,5 -15,10 0,6 -13,10 -30,10 -16,0 -30,-4 -30,-9 0,-14 -130,-41 -195,-41 -51,0 -60,3 -86,31 -23,24 -29,40 -29,74 0,53 32,160 71,238 16,31 28,57 27,57 -2,-1 -41,-13 -88,-29 z"
         id="path572" />
      <path
         d="m 3691,6189 c -5,-13 -23,-55 -39,-93 -29,-67 -29,-70 -16,-128 20,-87 52,-142 127,-218 37,-38 98,-50 257,-50 167,0 165,2 157,-168 -4,-102 -8,-124 -32,-170 -34,-66 -69,-86 -139,-79 -44,4 -55,10 -86,45 -54,62 -184,142 -231,142 -58,0 -143,-46 -167,-89 -48,-87 -72,-308 -49,-442 l 8,-47 h 87 c 106,0 334,-34 448,-68 111,-32 207,-82 268,-138 40,-37 49,-52 53,-88 4,-36 0,-49 -24,-79 -15,-20 -47,-47 -71,-59 -23,-13 -41,-26 -40,-30 13,-30 60,-144 75,-182 19,-51 20,-51 125,-63 82,-9 115,10 124,72 8,56 15,63 67,63 52,0 97,-21 145,-68 23,-23 42,-37 42,-31 0,13 -47,99 -66,120 -26,29 -17,59 23,75 35,15 41,14 152,-21 102,-33 247,-96 261,-114 3,-3 58,-32 123,-63 114,-57 117,-57 117,-34 0,13 15,65 34,114 96,251 170,328 270,283 47,-21 64,-38 99,-101 20,-37 31,-46 57,-48 47,-5 77,20 95,80 19,65 19,120 0,185 -19,63 -37,79 -103,87 -73,9 -127,33 -147,62 -9,14 -23,64 -31,112 -25,139 -6,226 82,384 8,15 30,39 49,54 l 34,26 -52,42 c -29,23 -68,53 -87,66 -19,13 -39,30 -45,36 -5,6 -35,28 -65,48 -30,19 -73,49 -95,65 -22,16 -65,42 -95,57 -30,16 -58,34 -62,39 -8,11 -172,14 -183,4 -3,-4 6,-45 20,-91 33,-107 27,-142 -29,-171 -35,-18 -44,-19 -105,-8 -69,12 -162,40 -171,50 -3,3 -45,26 -95,50 -49,23 -123,66 -162,95 l -73,51 v 48 c 0,64 21,101 75,132 38,23 43,29 36,48 -12,33 -71,62 -221,111 -123,40 -155,46 -355,66 -121,12 -222,26 -225,30 -3,4 -35,11 -72,15 -65,7 -68,6 -77,-16 z"
         id="path574" />
      <path
         d="m 5785,5333 c -42,-51 -61,-86 -78,-138 -38,-124 -21,-307 33,-347 14,-10 54,-23 89,-29 106,-17 118,-27 150,-128 32,-100 -10,-254 -79,-291 -11,-6 -36,-8 -57,-4 -39,6 -70,39 -99,105 -26,57 -107,78 -155,40 -36,-28 -119,-193 -150,-298 l -27,-93 62,-36 c 33,-20 63,-39 66,-43 3,-4 41,-31 85,-61 102,-68 171,-124 218,-177 42,-46 175,-120 199,-111 9,4 22,34 32,77 9,39 23,103 32,142 26,110 70,125 151,49 38,-35 57,-97 50,-155 -4,-22 -21,-88 -40,-145 -34,-104 -34,-105 -17,-140 26,-52 52,-70 125,-90 l 65,-17 10,36 c 50,192 79,449 87,791 l 6,265 -36,42 c -46,55 -76,104 -88,145 -26,81 -31,109 -38,208 -9,126 -37,202 -83,226 l -30,15 7,-89 c 5,-64 4,-91 -4,-97 -12,-7 -50,29 -121,115 -31,37 -138,146 -255,261 -22,22 -43,39 -47,39 -4,0 -33,-30 -63,-67 z"
         id="path576" />
    </g>
    <g
       id="layer107"
       fill="#b00055"
       stroke="none"
       transform="matrix(0.12673086,0,0,0.12673086,53.281978,-9.482771)">
      <path
         d="m 3330,7505 c -14,-2 -64,-7 -112,-10 -71,-6 -87,-10 -91,-24 -7,-29 -85,-58 -182,-70 -103,-12 -153,-25 -180,-46 -18,-14 -14,-15 45,-10 36,2 139,7 230,10 127,5 169,10 182,22 36,32 259,24 330,-13 38,-20 37,-50 -3,-59 -17,-4 -29,-9 -27,-11 2,-2 52,-11 111,-20 59,-9 107,-20 107,-25 0,-5 9,-9 20,-9 11,0 97,-25 191,-55 94,-31 173,-54 175,-52 2,2 -3,25 -12,51 -15,43 -15,48 0,71 13,20 25,25 58,25 51,0 171,-20 178,-30 3,-4 18,-10 34,-14 24,-6 26,-5 15,7 -27,26 -61,39 -182,66 -104,23 -122,30 -122,46 0,14 13,24 44,36 24,9 40,19 34,22 -6,4 -70,17 -144,29 -74,13 -136,25 -139,29 -16,19 -474,46 -560,34 z"
         id="path579" />
    </g>
    <g
       id="layer108"
       fill="#e29b00"
       stroke="none"
       transform="matrix(0.12673086,0,0,0.12673086,53.281978,-9.482771)">
      <path
         d="m 5785,5333 c -42,-51 -61,-86 -78,-138 -38,-124 -21,-307 33,-347 14,-10 54,-23 89,-29 106,-17 118,-27 150,-128 32,-100 -10,-254 -79,-291 -11,-6 -36,-8 -57,-4 -39,6 -70,39 -99,105 -26,57 -107,78 -155,40 -36,-28 -119,-193 -150,-298 l -27,-93 62,-36 c 33,-20 63,-39 66,-43 3,-4 41,-31 85,-61 102,-68 171,-124 218,-177 42,-46 175,-120 199,-111 9,4 22,34 32,77 9,39 23,103 32,142 26,110 70,125 151,49 38,-35 57,-97 50,-155 -4,-22 -21,-88 -40,-145 -34,-104 -34,-105 -17,-140 26,-52 52,-70 125,-90 l 65,-17 10,36 c 50,192 79,449 87,791 l 6,265 -36,42 c -46,55 -76,104 -88,145 -26,81 -31,109 -38,208 -9,126 -37,202 -83,226 l -30,15 7,-89 c 5,-64 4,-91 -4,-97 -12,-7 -50,29 -121,115 -31,37 -138,146 -255,261 -22,22 -43,39 -47,39 -4,0 -33,-30 -63,-67 z m 479,-564 c 3,-17 6,-71 6,-120 0,-87 1,-90 38,-141 l 37,-52 3,162 c 1,89 6,162 11,162 14,0 24,-221 17,-339 -4,-59 -10,-158 -14,-221 -8,-119 -13,-140 -38,-140 -8,0 -14,-4 -14,-10 0,-5 -7,-10 -15,-10 -23,0 -18,21 14,55 28,29 29,34 35,167 l 6,138 -35,31 c -19,18 -35,38 -35,45 0,22 -91,84 -132,90 -44,8 -48,16 -13,32 36,17 45,15 71,-13 42,-46 48,-35 41,85 -5,105 3,146 17,79 z m 11,-351 c 19,-17 27,-36 32,-75 7,-63 -17,-139 -48,-148 -10,-4 -19,-13 -19,-21 0,-8 -9,-14 -20,-14 -22,0 -27,16 -8,22 8,3 6,13 -9,31 -61,77 -46,227 22,227 13,0 36,-10 50,-22 z"
         id="path582" />
      <path
         d="m 6213,4412 c -5,-4 -15,-22 -21,-41 -20,-57 24,-162 62,-148 24,9 39,97 24,141 -13,38 -44,61 -65,48 z"
         id="path584" />
    </g>
    <path
       d="m 521.04552,774.85452 c -0.63366,-1.6475 -2.91481,-6.9702 -4.94238,-11.78597 -3.67532,-8.49097 -3.67532,-8.87116 -2.02782,-16.22155 2.53462,-11.02558 6.59001,-17.99578 16.09482,-27.62733 4.68917,-4.81577 12.41963,-6.33654 32.56996,-6.33654 21.16405,0 20.91059,0.25346 19.89674,-21.29078 -0.50705,-12.92655 -1.01384,-15.71463 -4.05538,-21.54425 -4.30885,-8.36424 -8.74456,-10.89885 -17.61572,-10.01174 -5.57603,0.50693 -6.9702,1.26731 -10.89873,5.70289 -6.84359,7.85731 -23.3186,17.99578 -29.27483,17.99578 -7.35051,0 -18.12264,-5.82962 -21.16405,-11.27904 -6.08308,-11.02559 -9.12462,-39.03311 -6.20994,-56.01504 l 1.01385,-5.95635 h 11.02558 c 13.4336,0 42.32824,-4.30885 56.77543,-8.6177 14.06725,-4.05539 26.23329,-10.39193 33.964,-17.48886 5.06923,-4.68904 6.20968,-6.59001 6.71673,-11.15232 0.50692,-4.56231 0,-6.20981 -3.04167,-10.01173 -1.90096,-2.53462 -5.95622,-5.95636 -8.99776,-7.47713 -2.91481,-1.6475 -5.19597,-3.295 -5.06923,-3.80192 1.6475,-3.80193 7.60385,-18.24925 9.50481,-23.06502 2.40789,-6.46327 2.53462,-6.46327 15.84136,-7.98404 10.39193,-1.14058 14.57405,1.26731 15.71462,9.12462 1.01385,7.09693 1.90097,7.98404 8.49084,7.98404 6.59014,0 12.29302,-2.66134 18.37598,-8.61769 2.91494,-2.91481 5.32282,-4.68905 5.32282,-3.92866 0,1.6475 -5.95648,12.54635 -8.36423,15.2077 -3.29513,3.6752 -2.15443,7.47712 2.91481,9.50482 4.43558,1.90096 5.19583,1.77423 19.26309,-2.66135 12.92654,-4.18212 31.30252,-12.16616 33.07675,-14.44732 0.38007,-0.38019 7.35026,-4.05539 15.58777,-7.98404 14.44744,-7.22366 14.82764,-7.22366 14.82764,-4.30885 0,1.6475 1.90096,8.2375 4.30885,14.44732 12.16616,31.80944 21.54424,41.56772 34.21733,35.86483 5.95635,-2.66135 8.11065,-4.81577 12.54623,-12.79982 2.53461,-4.68904 3.92878,-5.82962 7.22378,-6.08308 5.95635,-0.63365 9.75828,2.53462 12.03943,10.13847 2.40789,8.23751 2.40789,15.2077 0,23.44521 -2.40788,7.98404 -4.68916,10.01174 -13.05327,11.02558 -9.25136,1.14058 -16.09482,4.18212 -18.62944,7.85732 -1.14058,1.77423 -2.91481,8.11077 -3.92866,14.19385 -3.16827,17.61559 -0.76051,28.64118 10.39193,48.66465 1.01385,1.90097 3.80193,4.94251 6.20981,6.84347 l 4.30885,3.295 -6.59,5.3227 c -3.67532,2.91481 -8.6177,6.71673 -11.02559,8.36423 -2.40788,1.64751 -4.9425,3.80193 -5.70288,4.56232 -0.63366,0.76038 -4.43558,3.54846 -8.23751,6.08308 -3.80193,2.40788 -9.25135,6.20981 -12.03943,8.2375 -2.78821,2.0277 -8.23751,5.3227 -12.03943,7.22366 -3.80193,2.0277 -7.35039,4.30885 -7.85744,4.94251 -1.01372,1.39403 -21.79758,1.77423 -23.19162,0.50692 -0.3802,-0.50692 0.76038,-5.70289 2.53461,-11.53251 4.18199,-13.5602 3.42174,-17.99578 -3.67519,-21.67098 -4.43558,-2.28115 -5.57616,-2.40788 -13.30674,-1.01384 -8.74443,1.52077 -20.5304,5.06923 -21.67098,6.33654 -0.38019,0.38019 -5.70289,3.295 -12.03943,6.33654 -6.20981,2.91481 -15.5879,8.36424 -20.53053,12.03943 l -9.25122,6.46328 v 6.08308 c 0,8.11077 2.66135,12.79982 9.50481,16.72847 4.81565,2.91481 5.4493,3.6752 4.56231,6.08308 -1.52077,4.18212 -8.99789,7.85732 -28.00752,14.06713 -15.58789,5.06923 -19.64328,5.82962 -44.98945,8.36424 -15.33444,1.52077 -28.13438,3.295 -28.51445,3.80192 -0.38019,0.50693 -4.43558,1.39404 -9.12474,1.90097 -8.23751,0.88711 -8.61758,0.76038 -9.75828,-2.0277 z m 126.73099,-93.27391 c 8.2375,-2.66135 15.08097,-5.3227 15.08097,-5.95635 0,-1.14058 -6.46328,-0.38019 -10.2652,1.14058 -1.52077,0.50692 -2.66148,-0.50693 -4.30885,-3.92866 -2.02769,-4.43558 -2.15455,-5.06924 -0.25359,-8.11078 1.14071,-1.77423 3.80193,-6.84346 5.95648,-11.40577 14.06712,-28.89464 17.61559,-36.62522 18.37597,-40.17369 0.50693,-2.28115 1.39404,-4.43558 1.90097,-4.81577 1.2673,-0.76038 1.39403,-0.25346 3.80192,13.30674 0.88712,4.56231 2.02769,10.01174 2.66135,12.03943 1.01385,4.05539 2.91481,14.06713 4.30885,23.19175 0.88711,5.44943 0.88711,5.44943 -4.30885,7.47712 -3.6752,1.39404 -5.19597,2.78808 -5.19597,4.56231 0,1.77423 0.50693,2.15443 2.28103,1.52077 1.14071,-0.50692 3.16827,-1.26731 4.43558,-1.52077 1.14071,-0.38019 2.15455,-1.14058 2.15455,-1.6475 0,-1.14058 7.73059,-4.30885 20.15021,-8.36424 7.73058,-2.53461 8.7443,-4.9425 1.39404,-3.67519 -4.56231,0.76038 -5.19596,0.50692 -7.35039,-3.16827 -1.39404,-2.15443 -3.16827,-7.47712 -3.92866,-11.78597 -1.52077,-8.36424 -4.43558,-21.03732 -6.71686,-29.40156 -0.76026,-2.78808 -1.64737,-9.75828 -1.90096,-15.46117 l -0.5068,-10.51866 4.43558,-2.15442 c 4.68904,-2.15443 5.95635,-4.18212 2.78808,-4.18212 -2.40789,0 -19.00963,7.60385 -19.51655,8.99789 -0.25346,0.63365 -3.80193,2.02769 -7.98405,3.16827 -8.36436,2.28116 -10.39193,5.19597 -2.66147,3.6752 2.53462,-0.50693 5.19609,-0.88712 5.82975,-1.01385 0.63365,-0.12673 2.02769,1.39404 3.04141,3.42173 1.64763,3.16827 1.5209,4.56231 -0.5068,11.40578 -1.26731,4.18212 -5.06923,13.43347 -8.49096,20.40367 -3.42174,6.9702 -7.60386,15.58789 -9.25136,19.00963 -1.6475,3.54846 -3.04154,6.84346 -3.04154,7.35039 0,0.63365 -1.01384,2.40788 -2.15455,4.05539 -2.28103,2.91481 -2.28103,2.66134 -5.70289,-13.81367 -5.19584,-24.83925 -6.08295,-29.90848 -6.08295,-36.49849 0,-5.82962 0.12673,-5.95635 4.43558,-6.84346 4.43558,-0.76039 6.71661,-2.53462 5.19596,-3.92866 -0.38032,-0.38019 -6.33654,1.01385 -13.0534,3.16827 -6.84334,2.0277 -15.08085,4.56231 -18.37598,5.44943 -7.60385,2.15442 -8.36411,5.3227 -1.01372,4.18212 6.46328,-1.01385 8.36424,0.50692 10.01174,8.49097 0.76039,3.54846 1.90096,7.35039 2.53462,8.49096 0.63365,1.14058 2.28115,8.11078 3.80192,15.46117 1.39404,7.35039 3.16827,15.84136 3.92866,19.00963 3.6752,17.23539 3.295,19.51655 -3.92866,21.67097 -5.82974,1.77424 -6.71673,4.30885 -1.01384,3.16828 2.15429,-0.3802 10.64539,-2.91481 19.00963,-5.44943 z"
       id="path587"
       style="fill:#f29700;stroke:none;stroke-width:0.126731" />
    <g
       id="layer110"
       fill="#ff573a"
       stroke="none"
       transform="matrix(0.12673086,0,0,0.12673086,53.281978,-9.482771)">
      <path
         d="m 2565,7299 c -33,-4 -102,-14 -154,-20 -51,-7 -99,-18 -105,-24 -6,-6 -37,-23 -68,-38 -85,-38 -321,-168 -333,-182 -5,-7 -48,-36 -95,-66 -126,-79 -180,-120 -272,-209 -46,-44 -86,-80 -89,-80 -7,0 -230,-248 -244,-271 -5,-9 -45,-59 -88,-111 -42,-53 -77,-98 -77,-102 0,-4 -18,-31 -40,-61 -22,-30 -40,-57 -40,-60 0,-3 29,10 63,30 35,19 69,35 75,35 20,0 13,-30 -14,-65 -24,-32 -45,-115 -29,-115 4,0 19,11 33,24 15,13 52,44 82,68 63,50 92,95 100,153 5,37 9,42 65,72 33,17 110,47 172,65 104,31 114,36 132,68 11,19 39,58 64,86 24,28 61,76 82,105 22,30 61,79 87,110 26,31 48,59 48,62 0,3 -15,3 -34,0 -18,-3 -43,0 -54,6 l -21,11 21,40 c 12,22 25,40 29,40 4,0 31,20 60,45 29,25 87,62 128,82 42,21 79,42 83,48 11,16 128,11 139,-6 7,-12 10,-11 21,3 7,10 78,59 158,109 80,51 148,96 151,101 3,5 24,20 45,33 l 39,24 -30,-1 c -16,0 -57,-4 -90,-9 z"
         id="path590" />
    </g>
    <g
       id="layer111"
       fill="#bd3bb9"
       stroke="none"
       transform="matrix(0.12673086,0,0,0.12673086,53.281978,-9.482771)">
      <path
         d="m 3040,7470 c 0,-5 -11,-10 -24,-10 -64,0 -544,-116 -586,-142 -11,-7 -8,-8 10,-4 14,3 74,10 135,17 86,9 116,16 140,34 44,33 118,55 220,66 86,9 145,26 145,41 0,5 -9,8 -20,8 -11,0 -20,-4 -20,-10 z"
         id="path593" />
    </g>
    <g
       id="layer112"
       fill="#fab34c"
       stroke="none"
       transform="matrix(0.12673086,0,0,0.12673086,53.281978,-9.482771)">
      <path
         d="m 5528,7560 c -40,-7 -137,-32 -176,-45 -14,-5 -2,-32 31,-71 18,-22 18,-23 -11,-63 -30,-41 -30,-42 -17,-99 10,-42 21,-62 41,-77 15,-11 41,-31 57,-45 l 29,-25 -20,-79 c -13,-47 -35,-99 -57,-132 -35,-54 -36,-55 -17,-78 10,-13 46,-47 81,-76 87,-72 361,-342 361,-356 0,-6 12,-21 26,-35 30,-28 149,-169 155,-184 12,-31 114,-164 121,-157 4,4 11,59 14,122 8,139 -7,295 -43,440 -23,95 -74,240 -93,265 -4,6 -27,48 -51,95 -24,47 -56,106 -72,132 l -28,47 28,43 c 56,84 70,174 33,221 -24,30 -25,45 -6,73 14,20 12,22 -87,53 -110,35 -217,46 -299,31 z"
         id="path596" />
      <path
         d="m 1275,7554 c -11,-3 -66,-19 -123,-36 -102,-31 -102,-31 -87,-54 20,-30 19,-41 -5,-71 -37,-47 -24,-139 32,-220 l 29,-43 -44,-77 C 957,6841 917,6747 880,6600 831,6406 819,6198 846,6014 l 6,-41 95,141 c 53,77 124,176 159,218 35,43 64,80 64,84 0,12 242,271 339,363 l 99,93 -34,44 c -18,25 -38,63 -44,84 -5,22 -15,59 -21,82 -10,40 -10,44 18,68 16,14 42,34 57,45 20,15 31,35 41,77 13,57 13,58 -17,99 -29,40 -29,41 -11,63 33,39 45,66 31,71 -106,37 -295,63 -353,49 z"
         id="path598" />
      <path
         d="m 2827,7200 c -75,-29 -119,-67 -115,-98 3,-25 7,-27 52,-30 70,-5 136,22 136,54 0,19 -5,24 -25,24 -28,0 -35,-20 -7,-21 29,-1 -61,-38 -95,-39 -41,0 -48,12 -20,37 40,37 84,53 146,53 79,0 114,-13 106,-40 -8,-25 -3,-25 83,5 39,14 83,25 96,25 31,0 76,-17 98,-36 15,-14 13,-19 -20,-65 -24,-33 -60,-64 -102,-89 -103,-60 -260,-106 -314,-92 l -28,8 21,18 c 30,27 28,64 -5,72 -28,7 -124,-26 -157,-54 -28,-25 -17,-54 23,-65 64,-17 237,-2 330,28 108,34 239,111 264,154 6,10 21,33 34,52 28,43 25,79 -8,96 -43,22 -148,16 -215,-12 -70,-29 -75,-30 -75,-11 0,46 -115,61 -203,26 z m -9,-248 c 17,-11 -35,-60 -68,-62 -74,-6 -78,13 -9,47 49,24 58,26 77,15 z"
         id="path600" />
      <path
         d="m 1776,6930 c -16,-5 -46,-23 -67,-39 -21,-17 -49,-36 -62,-42 -14,-6 -30,-21 -36,-33 -6,-11 -21,-33 -33,-48 -37,-47 -9,-45 37,2 80,82 162,146 173,135 14,-14 -183,-184 -243,-209 -6,-3 -6,-8 2,-13 25,-18 -116,-173 -158,-173 -19,0 7,43 42,68 35,25 55,59 43,72 -3,3 -13,-4 -23,-16 -9,-11 -29,-29 -44,-39 -29,-18 -61,-80 -51,-96 3,-5 18,-9 33,-9 50,0 155,93 182,160 16,42 20,47 86,89 65,40 124,98 158,150 14,23 25,43 25,46 0,7 -30,5 -64,-5 z"
         id="path602" />
      <path
         d="m 2524,6681 c -17,-10 -40,-31 -52,-46 l -21,-27 19,-39 c 11,-21 20,-54 20,-73 0,-30 -5,-36 -43,-55 -24,-12 -53,-21 -64,-21 -12,0 -23,-5 -25,-10 -2,-7 -108,-14 -288,-20 -190,-6 -308,-14 -355,-24 -38,-9 -71,-16 -72,-16 -2,0 -19,-32 -39,-72 -43,-85 -74,-179 -74,-223 0,-34 25,-65 53,-65 9,0 17,-4 17,-10 0,-5 20,-10 45,-10 25,0 45,4 45,8 0,16 137,43 179,36 56,-9 65,-23 59,-97 -10,-117 -71,-228 -144,-263 -29,-14 -37,-13 -90,5 -32,12 -75,21 -96,21 -45,0 -137,-35 -154,-58 -7,-9 -23,-53 -36,-97 -28,-96 -31,-255 -6,-320 l 15,-40 99,-14 c 54,-8 101,-18 104,-22 3,-5 62,-13 130,-18 132,-11 248,-2 276,22 40,32 94,94 94,108 0,8 -16,31 -36,50 -34,32 -35,36 -29,83 8,63 30,104 58,111 101,23 150,23 255,4 128,-24 184,-48 235,-97 42,-41 47,-70 15,-98 -26,-24 -108,-133 -108,-145 0,-5 7,-9 15,-9 8,0 15,-4 15,-9 0,-36 558,-201 679,-201 16,0 31,-4 33,-10 2,-5 47,-12 101,-16 l 98,-7 -8,39 c -15,73 -6,273 15,354 30,112 54,147 126,181 73,35 122,37 179,8 52,-27 141,-88 185,-128 69,-62 135,-50 173,31 20,44 24,66 24,167 v 116 l -155,6 c -206,7 -234,19 -309,129 -56,82 -71,115 -81,177 -9,52 -7,60 31,145 23,49 39,91 37,93 -2,2 -87,17 -188,34 -184,30 -442,96 -511,132 -34,17 -79,84 -79,117 0,6 27,32 60,57 33,25 60,52 60,59 0,24 -41,55 -92,71 -37,11 -96,15 -207,15 -135,0 -160,-3 -187,-19 z m -54,-454 c 0,-51 -36,-166 -59,-191 l -22,-24 25,-6 c 14,-3 37,-18 50,-31 l 26,-25 6,25 c 9,38 44,34 44,-5 0,-24 -8,-35 -41,-55 -70,-45 -92,-43 -49,3 l 20,21 -21,11 c -24,13 -129,26 -129,16 0,-17 39,-66 97,-122 35,-34 63,-69 63,-77 0,-19 -38,-57 -57,-57 -8,0 -13,6 -11,13 4,21 -14,61 -46,103 -32,41 -32,42 -62,27 -16,-9 -31,-17 -33,-19 -3,-3 45,-82 90,-146 22,-31 24,-49 7,-66 -19,-19 -45,-14 -51,11 -14,55 -51,153 -64,168 -8,10 -23,15 -34,12 -40,-11 -17,15 41,46 33,18 60,35 60,38 0,11 -35,63 -42,63 -4,0 -8,7 -8,15 0,8 -7,15 -15,15 -8,0 -15,8 -15,18 1,23 24,52 43,52 8,0 29,-8 46,-17 29,-17 31,-17 50,2 14,13 24,45 31,95 7,41 17,85 23,98 16,33 37,28 37,-11 z m 240,4 c 0,-15 11,-19 77,-25 42,-3 80,-11 84,-18 5,-7 33,-11 79,-10 62,1 71,-1 68,-16 -3,-14 -16,-17 -82,-17 -86,0 -84,1 -100,-71 l -7,-32 56,-7 c 75,-9 69,-31 -8,-28 -54,2 -56,1 -66,-29 -17,-47 -14,-54 26,-64 49,-12 59,-38 12,-32 -19,3 -41,8 -50,12 -12,5 -18,-2 -27,-31 -13,-43 -12,-45 51,-68 62,-23 66,-51 5,-41 -23,4 -46,12 -51,19 -5,7 -5,2 -2,-13 4,-14 17,-35 28,-48 27,-29 13,-56 -32,-60 -29,-3 -31,-2 -25,22 3,14 0,48 -7,75 -12,48 -14,50 -66,66 -51,16 -103,14 -103,-4 0,-5 7,-11 15,-15 8,-3 15,-13 15,-23 1,-24 31,-59 58,-67 42,-14 21,-68 -34,-86 -42,-14 -50,-9 -32,19 10,17 10,25 -3,48 -9,16 -19,41 -23,58 -4,16 -23,46 -42,67 -19,21 -34,45 -34,53 0,22 28,18 35,-5 9,-27 25,-25 61,8 28,25 31,37 53,172 12,80 27,160 33,178 10,34 38,44 38,13 z m -357,-53 c 5,-53 3,-66 -13,-80 -27,-25 -33,-22 -26,12 3,17 1,30 -4,30 -16,0 -11,62 7,82 9,10 19,18 23,18 4,0 10,-28 13,-62 z m 217,-47 c 0,-16 -82,-81 -103,-81 -17,0 -4,32 24,65 35,39 79,49 79,16 z"
         id="path604" />
      <path
         d="m 2693,6133 c -6,-27 -11,-48 -10,-48 1,0 23,-7 48,-16 l 47,-16 5,36 c 3,20 9,46 12,57 7,23 -14,34 -66,34 -22,0 -27,-6 -36,-47 z"
         id="path606" />
      <path
         d="m 2670,6010 c -7,-22 -11,-42 -9,-44 2,-2 21,-6 43,-8 37,-3 39,-1 52,34 12,36 12,37 -18,47 -47,17 -54,14 -68,-29 z"
         id="path608" />
      <path
         d="m 2639,5897 -16,-45 30,-6 c 45,-9 46,-9 64,29 19,40 13,52 -32,61 -28,5 -31,3 -46,-39 z"
         id="path610" />
      <path
         d="m 4940,6622 c 0,-16 4,-42 10,-58 5,-16 14,-85 19,-154 13,-171 12,-173 -110,-164 -101,8 -109,4 -109,-53 0,-25 23,-82 47,-112 1,-2 19,4 38,15 30,16 40,17 80,6 63,-17 111,-15 131,5 15,15 16,32 11,138 -11,219 -53,397 -96,403 -17,3 -21,-2 -21,-26 z"
         id="path612" />
      <path
         d="m 6489,6372 c -25,-31 -55,-73 -67,-94 -44,-72 -110,-246 -142,-374 l -33,-130 47,-102 c 25,-56 46,-107 47,-114 0,-7 8,-31 18,-53 l 18,-40 6,195 c 12,370 69,576 190,689 l 26,23 -21,29 c -12,16 -27,29 -32,29 -6,0 -32,-26 -57,-58 z"
         id="path614" />
      <path
         d="m 5984,6023 c 6,-48 34,-88 67,-98 26,-9 123,-225 101,-225 -16,0 -101,64 -112,85 -14,27 -30,33 -30,13 0,-17 37,-78 47,-78 5,0 19,-10 33,-23 68,-62 110,-74 110,-32 0,14 -7,36 -15,48 -8,12 -22,51 -31,86 -27,109 -64,183 -112,229 -25,23 -50,42 -55,42 -6,0 -7,-19 -3,-47 z m 71,-49 c 23,-35 0,-30 -25,6 -15,21 -17,28 -6,24 8,-3 22,-17 31,-30 z"
         id="path616" />
      <path
         d="m 6040,5654 c 0,-8 11,-32 25,-52 14,-20 25,-42 25,-48 0,-16 39,-49 87,-73 61,-31 73,-28 73,17 0,62 -19,83 -110,129 -95,48 -100,49 -100,27 z m 130,-71 c 33,-19 68,-73 48,-73 -31,0 -93,49 -118,92 -9,16 -8,17 16,8 15,-6 39,-18 54,-27 z"
         id="path618" />
      <path
         d="m 3274,4789 c -26,-6 -58,-25 -85,-50 -51,-48 -65,-54 -141,-63 -51,-7 -65,-13 -113,-58 -45,-41 -66,-72 -111,-164 -30,-63 -66,-146 -79,-184 l -24,-69 32,6 c 33,7 46,19 69,63 22,44 93,133 159,199 92,93 228,149 437,180 81,12 162,4 297,-31 132,-34 213,-76 284,-149 66,-66 137,-155 159,-199 23,-44 36,-56 69,-63 l 32,-6 -24,69 c -13,38 -49,121 -79,184 -45,92 -66,123 -111,164 -48,45 -62,51 -113,58 -76,9 -90,15 -140,62 -68,63 -165,79 -253,41 l -49,-21 -49,21 c -52,22 -99,25 -167,10 z"
         id="path620" />
      <path
         d="m 2340,4281 c 0,-5 -14,-14 -30,-21 -17,-7 -55,-39 -85,-72 -67,-72 -71,-105 -24,-194 41,-76 36,-121 -30,-263 -27,-58 -52,-114 -55,-124 -14,-44 74,-175 143,-212 54,-29 190,-27 299,4 45,13 82,28 82,32 0,16 19,9 47,-17 49,-46 239,-131 354,-158 59,-14 118,-26 132,-26 14,0 27,-4 29,-10 2,-5 67,-15 145,-21 111,-9 175,-9 285,0 79,6 145,16 146,21 2,6 15,10 29,10 14,0 73,12 132,26 115,27 305,112 354,158 28,26 47,33 47,17 0,-4 37,-19 83,-32 108,-31 244,-33 298,-4 69,37 157,168 143,212 -3,10 -28,66 -55,124 -66,142 -71,187 -30,263 47,89 43,122 -24,194 -30,33 -68,65 -85,72 -16,7 -30,16 -30,21 0,5 -17,9 -39,9 -37,0 -39,-2 -46,-37 -10,-52 -21,-70 -56,-88 -25,-14 -44,-14 -132,-5 -56,6 -151,19 -212,30 -194,34 -502,63 -665,63 -163,0 -471,-29 -665,-63 -60,-11 -156,-24 -212,-30 -139,-15 -171,1 -188,93 -7,35 -9,37 -46,37 -22,0 -39,-4 -39,-9 z m 400,-213 c 0,-6 9,-22 21,-34 19,-20 20,-27 10,-57 -15,-44 -21,-49 -101,-82 -38,-15 -75,-38 -88,-56 -25,-31 -41,-113 -42,-211 0,-69 -13,-75 -57,-24 -46,51 -75,121 -83,199 -8,66 -6,75 20,127 15,30 36,63 47,72 30,27 88,48 153,55 33,3 60,10 60,14 0,5 14,9 30,9 17,0 30,-5 30,-12 z m 1560,3 c 0,-4 27,-11 60,-14 65,-7 123,-28 153,-55 11,-9 32,-42 47,-72 26,-52 28,-61 20,-127 -8,-78 -37,-148 -83,-199 -44,-51 -57,-45 -57,24 -1,98 -17,180 -42,211 -13,18 -50,41 -88,56 -80,33 -86,38 -101,82 -10,30 -9,37 10,57 12,12 21,28 21,34 0,7 14,12 30,12 17,0 30,-4 30,-9 z"
         id="path622" />
      <path
         d="m 750,2431 c -118,-9 -210,-19 -205,-22 6,-4 44,-12 85,-19 41,-7 77,-16 80,-20 3,-3 46,-14 95,-24 50,-9 128,-29 174,-42 100,-30 280,-108 307,-132 11,-10 42,-32 70,-50 l 52,-33 122,23 c 72,13 124,27 127,35 7,17 -73,106 -132,148 -26,19 -70,42 -99,51 -28,9 -53,20 -56,25 -8,12 -323,79 -366,78 -21,-1 -136,-9 -254,-18 z"
         id="path624" />
      <path
         d="m 3363,2428 c -12,-13 -41,-53 -66,-90 -123,-180 -176,-372 -184,-672 l -5,-168 -31,6 c -17,4 -34,10 -37,15 -3,5 -18,13 -33,16 -86,22 -142,153 -163,377 -4,43 -10,75 -15,72 -14,-8 -69,-94 -100,-156 -48,-96 -130,-467 -113,-512 7,-19 155,-54 278,-67 62,-6 318,-9 657,-6 l 554,4 119,26 c 66,15 122,30 125,35 3,5 31,15 61,24 l 55,15 -2,66 c -5,144 -62,294 -168,442 -32,44 -59,85 -62,91 -3,7 -13,3 -28,-12 -32,-32 -49,-30 -79,9 -14,18 -67,67 -118,108 -50,41 -103,85 -117,99 -28,26 -203,131 -210,125 -2,-3 8,-18 22,-34 14,-17 31,-55 37,-84 10,-49 9,-57 -14,-98 -14,-24 -36,-79 -50,-121 -23,-68 -26,-93 -26,-217 0,-79 -4,-142 -10,-146 -25,-16 -122,203 -165,375 -31,121 -52,245 -67,388 -7,61 -15,112 -18,112 -4,0 -16,-10 -27,-22 z"
         id="path626" />
      <path
         d="m 5780,2414 c -85,-20 -157,-39 -160,-43 -3,-5 -28,-16 -56,-25 -29,-9 -73,-32 -99,-51 -59,-42 -139,-131 -132,-148 3,-8 55,-22 127,-35 l 122,-23 52,33 c 28,18 58,39 66,47 48,47 321,147 483,177 53,10 97,21 97,25 0,3 36,12 80,19 44,7 82,16 85,19 3,6 -98,15 -440,36 -56,4 -101,-2 -225,-31 z"
         id="path628" />
    </g>
    <g
       id="layer113"
       fill="#fbca7f"
       stroke="none"
       transform="matrix(0.12673086,0,0,0.12673086,53.281978,-9.482771)">
      <path
         d="m 1510,6311 c -47,-15 -113,-40 -147,-56 -56,-25 -63,-31 -63,-57 0,-43 -33,-99 -87,-147 -26,-24 -61,-55 -78,-70 -49,-44 -94,-73 -105,-66 -15,10 -12,102 5,135 9,17 13,30 9,30 -18,0 -116,-64 -126,-83 -6,-12 -17,-26 -24,-32 -12,-10 -114,-189 -114,-201 0,-3 -25,-69 -56,-147 C 567,5221 508,5022 475,4776 l -7,-49 49,50 c 50,51 116,84 134,66 7,-7 6,-40 -1,-94 -11,-91 -5,-148 16,-156 27,-10 70,9 109,50 54,57 75,126 75,249 v 96 l 47,41 c 26,22 72,53 103,68 30,16 58,32 61,36 9,13 126,27 227,27 50,0 92,3 92,6 0,3 -7,28 -16,55 -31,92 -5,294 52,412 10,20 23,37 30,37 6,0 31,9 55,20 54,24 126,25 189,3 45,-16 50,-16 88,1 51,23 75,57 101,140 25,82 28,136 6,136 -8,0 -15,5 -15,10 0,6 -13,10 -30,10 -16,0 -30,-4 -30,-9 0,-14 -130,-41 -195,-41 -51,0 -60,3 -86,31 -23,24 -29,40 -29,74 0,53 32,160 71,238 16,31 28,57 27,57 -2,-1 -41,-13 -88,-29 z m -360,-430 c 0,-6 -9,-25 -19,-43 -11,-18 -29,-62 -39,-98 -11,-36 -29,-96 -41,-135 -24,-80 -28,-126 -9,-107 22,22 40,14 36,-15 -2,-22 -10,-29 -41,-36 -30,-7 -42,-18 -60,-49 -22,-42 -28,-51 -61,-103 -34,-52 -60,-76 -108,-101 -79,-40 -82,-38 -76,66 3,50 2,90 -3,90 -19,0 -8,31 15,41 27,13 45,54 71,164 9,39 21,75 25,80 4,6 13,26 18,45 24,79 41,115 56,118 20,4 20,-1 0,-40 -21,-40 -50,-123 -78,-223 -13,-44 -26,-90 -30,-102 l -7,-23 49,25 c 27,13 72,30 101,36 54,11 55,13 64,87 4,38 -6,41 -28,8 -34,-51 -75,-43 -75,14 0,78 55,170 101,170 15,0 32,-7 37,-16 7,-13 13,-4 26,37 20,60 53,119 67,119 5,0 9,-4 9,-9 z"
         id="path653" />
      <path
         d="m 963,5678 c -22,-31 -32,-65 -20,-77 6,-6 14,-11 18,-11 17,0 69,53 69,70 0,28 -49,41 -67,18 z"
         id="path655" />
      <path
         d="m 863,5398 c -78,-30 -83,-34 -98,-75 -20,-51 -13,-113 11,-113 26,0 69,30 90,63 12,18 40,60 63,95 22,34 35,62 29,62 -7,-1 -50,-15 -95,-32 z"
         id="path657" />
    </g>
    <g
       id="layer114"
       fill="#fee678"
       stroke="none"
       transform="matrix(0.12673086,0,0,0.12673086,53.281978,-9.482771)">
      <path
         d="m 2230,5474 c -8,-1 -36,-6 -63,-9 -51,-7 -70,-25 -82,-81 -5,-27 -1,-37 29,-69 23,-24 36,-48 36,-65 0,-36 -66,-125 -107,-145 -75,-36 -273,-36 -488,0 -104,17 -331,20 -424,5 -72,-12 -122,-35 -198,-92 l -53,-39 v -92 c 0,-101 -20,-194 -50,-236 -28,-41 -93,-82 -138,-88 -32,-4 -44,-1 -62,17 -21,21 -22,28 -16,109 4,47 10,97 13,110 l 6,24 -42,-24 c -24,-13 -59,-46 -79,-74 -20,-27 -39,-52 -43,-55 -4,-3 -12,-79 -19,-170 -30,-392 32,-847 174,-1265 57,-168 78,-225 115,-308 29,-65 31,-67 58,-60 15,5 162,7 325,7 l 297,-1 -25,37 c -28,42 -48,147 -39,200 3,19 12,52 20,73 54,135 69,159 144,209 25,17 48,35 52,40 8,13 147,58 229,75 41,8 126,17 188,20 101,4 113,7 106,21 -20,41 -6,97 44,192 68,127 73,168 33,248 -31,62 -38,112 -22,154 14,36 127,147 166,164 36,15 103,19 121,6 6,-4 14,-28 18,-55 10,-68 40,-82 147,-69 44,6 82,12 85,14 2,3 17,40 33,84 91,251 208,414 297,414 19,0 34,5 34,10 0,6 12,10 26,10 33,0 61,15 104,55 58,55 172,70 260,35 50,-20 50,-20 100,0 88,35 202,20 260,-35 43,-40 71,-55 104,-55 14,0 26,-4 26,-10 0,-5 15,-10 34,-10 54,0 149,-89 194,-182 29,-60 36,-62 82,-19 10,9 30,24 44,34 18,13 26,27 26,49 0,30 -15,49 -103,126 -90,80 -401,149 -702,157 -158,4 -432,38 -445,55 -3,4 -42,14 -88,24 -111,24 -365,107 -438,144 -51,25 -59,32 -57,55 2,28 32,74 95,144 21,24 38,47 38,52 0,19 -85,82 -124,92 -51,14 -226,49 -234,48 -4,-1 -14,-3 -22,-5 z"
         id="path660" />
      <path
         d="m 4745,4386 c -18,-13 -18,-14 2,-42 42,-59 64,-108 61,-134 -1,-15 4,-35 11,-44 8,-9 16,-38 19,-64 3,-40 -1,-59 -28,-112 -27,-54 -31,-69 -25,-109 7,-49 52,-146 92,-199 26,-35 34,-89 20,-129 -8,-21 -6,-21 105,-26 62,-3 147,-12 188,-20 82,-17 221,-62 229,-75 4,-5 27,-23 52,-40 75,-50 89,-71 143,-207 8,-22 18,-56 21,-75 9,-53 -11,-158 -39,-200 l -25,-37 297,1 c 163,0 309,-2 324,-7 24,-6 29,-3 44,24 49,95 198,506 186,513 -4,2 -22,7 -39,11 -18,3 -33,10 -33,15 0,5 -13,11 -30,15 -30,7 -79,55 -104,103 -15,29 -8,110 11,134 6,7 21,46 33,86 35,115 21,171 -53,224 -20,15 -31,17 -41,9 -13,-11 -33,-76 -60,-195 -9,-38 -23,-81 -32,-94 -14,-22 -21,-24 -65,-20 -32,3 -58,13 -72,27 -13,11 -28,21 -34,21 -6,0 -52,41 -104,91 -52,50 -141,121 -199,159 -58,38 -114,77 -125,86 -11,9 -103,57 -205,107 -102,50 -187,93 -190,97 -10,14 -87,48 -191,84 -121,41 -119,41 -144,22 z"
         id="path662" />
      <path
         d="m 1895,3493 c -11,-2 -69,-15 -129,-29 -60,-13 -112,-27 -115,-31 -3,-5 -29,-19 -58,-32 -70,-32 -130,-93 -160,-160 -14,-31 -30,-67 -36,-80 -7,-13 -12,-57 -11,-97 1,-61 6,-81 31,-126 17,-29 50,-68 74,-86 94,-71 94,-71 82,-83 -13,-13 -40,1 -87,45 -26,23 -34,24 -224,31 -108,4 -253,5 -322,2 -117,-5 -269,-31 -280,-47 -3,-4 -23,-13 -45,-20 -59,-19 -173,-77 -230,-118 -45,-33 -123,-106 -183,-173 l -23,-26 116,-18 c 64,-9 134,-15 155,-11 21,3 162,15 312,26 290,22 285,22 473,-21 131,-31 225,-59 225,-68 0,-4 19,-16 43,-27 55,-24 197,-167 197,-198 0,-16 20,-40 60,-75 40,-35 76,-80 109,-137 49,-83 51,-87 57,-188 8,-127 3,-157 -42,-231 l -35,-59 25,-25 c 30,-30 87,-32 139,-6 18,9 66,21 108,26 92,13 154,0 271,-55 41,-20 99,-43 128,-52 59,-17 70,-12 70,37 0,39 38,243 60,323 18,62 62,161 104,234 23,40 79,92 98,92 15,0 18,-9 18,-57 0,-79 26,-231 50,-296 24,-64 60,-101 119,-122 l 44,-15 -5,52 c -8,75 8,259 31,363 46,207 130,385 234,493 51,52 77,65 77,37 0,-43 44,-343 64,-444 24,-112 87,-306 119,-367 16,-28 16,-25 17,76 0,117 18,196 69,302 25,54 29,70 21,96 -10,36 -38,79 -88,136 -35,39 -35,39 -12,48 17,6 39,-1 99,-34 102,-56 198,-117 245,-159 22,-19 77,-67 122,-106 45,-40 89,-73 98,-73 9,0 18,11 22,25 3,14 11,25 16,25 10,0 44,-39 63,-72 6,-9 35,-54 66,-100 85,-125 128,-231 146,-364 l 16,-112 46,19 c 128,50 180,68 216,73 50,8 170,-8 212,-29 52,-26 109,-24 139,6 l 25,25 -35,59 c -45,74 -50,104 -42,231 6,101 8,105 57,188 33,57 69,102 109,137 40,35 60,59 60,75 0,31 142,174 198,198 23,11 42,23 42,27 0,9 94,37 225,68 188,43 183,43 473,21 150,-11 291,-23 312,-26 21,-4 91,2 155,11 l 116,18 -23,26 c -60,67 -138,140 -183,173 -57,41 -171,99 -230,118 -22,7 -42,16 -45,20 -11,16 -163,42 -280,47 -69,3 -214,2 -322,-2 -190,-7 -198,-8 -224,-31 -47,-44 -74,-58 -87,-45 -12,12 -12,12 82,83 24,18 57,57 74,86 25,45 30,65 31,126 1,40 -4,84 -11,97 -6,13 -22,49 -36,80 -30,67 -90,128 -160,160 -29,13 -55,27 -58,32 -14,20 -230,59 -349,64 l -125,5 -44,-57 c -63,-82 -107,-100 -236,-99 -78,1 -117,7 -179,27 l -80,26 -47,-35 c -59,-43 -173,-95 -259,-119 -36,-9 -67,-21 -70,-25 -8,-12 -182,-39 -327,-52 -97,-7 -169,-7 -265,0 -146,13 -320,40 -328,52 -3,4 -34,16 -70,25 -86,24 -200,76 -259,119 l -47,35 -80,-26 c -62,-20 -101,-26 -179,-27 -128,-1 -173,17 -236,98 l -44,56 -100,-1 c -55,-1 -109,-3 -120,-6 z m 745,-648 c 37,-19 84,-87 106,-154 46,-142 -32,-346 -140,-366 -56,-11 -103,12 -143,69 -75,109 -83,245 -20,359 53,97 123,130 197,92 z m 1830,0 c 37,-19 84,-87 106,-154 46,-142 -32,-346 -140,-366 -56,-11 -103,12 -143,69 -75,109 -83,245 -20,359 53,97 123,130 197,92 z"
         id="path664" />
      <path
         d="m 1219,2162 c 9,-16 48,-55 82,-80 10,-8 25,-9 38,-4 19,7 15,11 -39,42 -33,19 -60,38 -60,41 0,4 -7,9 -15,13 -12,4 -13,2 -6,-12 z"
         id="path666" />
      <path
         d="m 5750,2164 c 0,-5 -27,-25 -61,-44 -58,-34 -59,-35 -34,-43 20,-7 31,-5 47,9 30,28 61,74 54,81 -3,4 -6,2 -6,-3 z"
         id="path668" />
      <path
         d="m 2200,1404 c 30,-14 89,-39 130,-56 41,-16 77,-33 80,-37 7,-10 161,-63 275,-95 189,-53 514,-106 647,-106 27,0 48,-4 48,-10 0,-6 38,-10 95,-10 57,0 95,4 95,10 0,6 22,10 50,10 124,0 515,63 690,111 120,33 265,81 270,89 3,4 48,26 100,49 52,23 106,48 120,56 l 25,14 h -25 c -14,0 -56,-11 -95,-25 -38,-13 -83,-29 -100,-33 -41,-12 -139,-54 -145,-63 -9,-12 -188,-56 -319,-78 -119,-21 -147,-21 -710,-17 -397,3 -604,8 -641,16 -78,17 -274,73 -280,80 -8,10 -202,91 -256,107 -26,8 -61,14 -78,13 -29,0 -27,-2 24,-25 z"
         id="path670" />
    </g>
    <path
       d="m 367.14747,312.12824 c -3.32609,-4.09365 1.66304,-10.36204 6.14047,-7.54766 4.3495,2.81438 2.81438,9.46655 -2.30268,9.46655 -1.27926,0 -2.9423,-0.89548 -3.83779,-1.91889 z"
       id="path214"
       style="fill:#ffffff;stroke:none;stroke-width:0.127926" />
    <path
       d="m 599.25282,312.12824 c -3.32609,-4.09365 1.66304,-10.36204 6.14047,-7.54766 4.3495,2.81438 2.81438,9.46655 -2.30268,9.46655 -1.27926,0 -2.94231,-0.89548 -3.83779,-1.91889 z"
       id="path216"
       style="fill:#ffffff;stroke:none;stroke-width:0.127926" />
  </g>
</svg>
